<svg xmlns="http://www.w3.org/2000/svg" width="740.24" height="218.32" viewBox="0 0 740.24 218.32">
  <title>BP_LOGO_2945U_HORIZ</title>
  <g id="Layer_2" data-name="Layer 2">
    <g id="Layer_1-2" data-name="Layer 1">
      <path d="M110.24,0C49.35,0,0,48.87,0,109.16S49.35,218.32,110.24,218.32s110.23-48.87,110.23-109.16S171.12,0,110.24,0Zm67.69,80.2c-1.79,2.14-3.7,4.42-4.72,5.59a185.81,185.81,0,0,0-11.67,14.6,14.33,14.33,0,0,0-2.56,4.73c-.4,1.68.08,3.12-.5,4.84-.73-.83-1.37-1.72-1.93-2.5v0a8.81,8.81,0,0,1-2.1,7.74,41.94,41.94,0,0,1-7.37,5.93c-5.26,3.39-4.53,5.83-.29,9.54,2,3.51.76,5.24-1,6.7-2,1.08-2,4.12,1.27,5.93-2.34,2-3.31,3.32-.89,5.59,1.24.23,1.78.84,1.81,1.63a7.88,7.88,0,0,0-1.86,1.6c-2.25,2.66-3.34,6.41-6.57,8.18s-8.17,1-11.73.27c-9-1.83-12-10.31-14.24-18.2,0,.2,0,.4,0,.6a30.06,30.06,0,0,1,.23,9.62v0a.72.72,0,0,1-.14.53c-.14,2-6.5,2-6.85,0a.72.72,0,0,1-.15-.53v0a30.05,30.05,0,0,1,.22-9.62c0-.2,0-.4,0-.6-2.28,7.89-5.25,16.37-14.24,18.2-3.56.71-8.39,1.54-11.73-.27s-4.32-5.52-6.57-8.18a7.73,7.73,0,0,0-1.87-1.6c0-.79.57-1.4,1.82-1.63,2.41-2.27,1.45-3.62-.9-5.59,3.25-1.81,3.28-4.85,1.28-5.93-1.74-1.46-3-3.19-1-6.7,4.24-3.71,5-6.15-.3-9.54A42.26,42.26,0,0,1,66,115.23a8.81,8.81,0,0,1-2.1-7.74v0c-.57.78-1.21,1.67-1.93,2.5-.58-1.72-.1-3.16-.51-4.84a14.15,14.15,0,0,0-2.56-4.73c-3-4.18-11.61-14.54-16.34-20.18a13.19,13.19,0,0,1-3.1-10.55,18.06,18.06,0,0,1,.41-1.94c1.13-4.23,3.78-8.29,8-9.95,5.58-2.2,12.28.19,17.46,2.38A86.08,86.08,0,0,1,94.85,81.46c4.2,4.58,8.74,10,11.67,16a8.15,8.15,0,0,1,.68-3.06,7.8,7.8,0,0,0,.91-4.9,38.71,38.71,0,0,0-7.39-16.78,1.4,1.4,0,0,1-.44.22,1,1,0,0,1-1.15-.49,1.14,1.14,0,0,1-.36-1.3,1.18,1.18,0,0,1,.54-.64,1.24,1.24,0,0,1,.72-.45.91.91,0,0,1,.8.46,1.31,1.31,0,0,1,.15.5,1.4,1.4,0,0,1,.22.44.79.79,0,0,1,.3.24,37.24,37.24,0,0,1,7.9,20.69.76.76,0,0,1,.16,0h.06a.74.74,0,0,1,.61-.07.73.73,0,0,1,.61.07h.07a.57.57,0,0,1,.15,0A37.33,37.33,0,0,1,119,71.71a.67.67,0,0,1,.3-.24,1.22,1.22,0,0,1,.22-.44,1.31,1.31,0,0,1,.15-.5.89.89,0,0,1,.79-.46,1.18,1.18,0,0,1,.72.45,1.17,1.17,0,0,1,.19,1.94,1,1,0,0,1-1.15.49,1.22,1.22,0,0,1-.44-.22,38.61,38.61,0,0,0-7.4,16.78,7.81,7.81,0,0,0,.92,4.9,8,8,0,0,1,.67,3.06c2.94-6,7.48-11.43,11.68-16a86,86,0,0,1,29.47-21.31c5.19-2.19,11.89-4.58,17.47-2.38,4.23,1.66,6.89,5.72,8,9.95.17.66.31,1.33.42,2A13.22,13.22,0,0,1,177.93,80.2Zm379.64,1.16h14.26l13.37,18h11.09L582.16,80.73c6.78-.38,12.86-5,12.86-13.43,0-11.17-7.85-13.62-18.76-13.62H548.57V99.31h9Zm0-20.28h17.36c7.35,0,11.09,1.07,11.09,6.41S582.28,74,574.93,74H557.57ZM405.12,99.31h9v-38h20.6V53.68H384.53v7.65h20.59ZM299.46,117.88H273.79v45.63h9v-17.7h16.67c7.79,0,20.59,0,20.59-13.93S307.25,117.88,299.46,117.88Zm2,20.27H282.79V125.53h18.63c5.13,0,9.63.44,9.63,6.28S306.55,138.15,301.42,138.15Zm50.65-37.71c15,0,24.46-6,24.46-20.71V53.68h-9V79.1c0,7.53-2.73,13.68-15.46,13.68S336.6,86.63,336.6,79.1V53.68h-9V79.73C327.61,94.42,337.05,100.44,352.07,100.44ZM321.38,86.07a12.18,12.18,0,0,0-7.1-11.24c2.48-1.57,5.33-3.7,5.33-9.48,0-8.66-7.23-11.67-18.06-11.67H273.79V99.31h29.47C314.47,99.31,321.38,94.67,321.38,86.07Zm-38.59-25h19.33c5.89,0,8.49,1.45,8.49,5.34s-2.6,5.27-8.49,5.27H282.79Zm0,30.82V79.1h19.58c6.08,0,10,1.51,10,6.28,0,5.39-4.31,6.52-10,6.52Zm177.6,7.41h9v-38H490V53.68H439.8v7.65h20.59ZM340.85,117.88l-22.69,45.63h9.57L332.61,153h26.55L364,163.51h9.51l-22.37-45.63Zm-4.5,27.49L346,125l9.63,20.34Zm212.09-28.62c-20.28,0-27.44,11.8-27.44,24.29,0,9.48,5.64,23.6,27.44,23.6s27.44-14.12,27.44-23.6C575.88,128.55,568.72,116.75,548.44,116.75Zm0,40.23c-8.62,0-18.44-3.51-18.44-16.44,0-11,7.92-16.13,18.44-16.13s18.44,5.14,18.44,16.13C566.88,153.47,557.06,157,548.44,157Zm76.94-6.15-30.79-33h-9.51v45.63h8.62V129.37l32.07,34.14H634V117.88h-8.62Zm37.86-97.15h-9V99.31h42.39V91.4H663.24Zm65.91,0L713.24,73l-16-19.33h-11l22.5,27.37V99.31h9V81.05l22.5-27.37ZM603.65,99.31h9V79.6h28.71V71.94H612.65V61.33h33.4V53.68h-42.4Zm-209.94,55-17.3-36.41h-9.63L389,163.51h9.38L421,117.88h-9.63Zm108.52,9.22h9V117.88h-9Zm-72.89,0h9V117.88h-9ZM540.07,91.65H507V79.6h27.82V71.94H507V61.33h32.32V53.68H498V99.31h42.08Zm-80,26.23h-9v45.63h42.4V155.6h-33.4Z" style="fill: #24588d"/>
    </g>
  </g>
</svg>
