<svg xmlns="http://www.w3.org/2000/svg" viewBox="0 0 48 48" fill="none">
  <path d="M24 20c-6 0-12 6-12 12s6 12 12 12c3.5 0 6.5-1.5 8.5-4-2 2.5-5 4-8.5 4-6 0-12-6-12-12s6-12 12-12c3.5 0 6.5 1.5 8.5 4-2-2.5-5-4-8.5-4z" fill="#2D5A27"/>
  <path d="M24 20c6 0 12 6 12 12s-6 12-12 12c-3.5 0-6.5-1.5-8.5-4 2 2.5 5 4 8.5 4 6 0 12-6 12-12s-6-12-12-12c-3.5 0-6.5 1.5-8.5 4 2-2.5 5-4 8.5-4z" fill="#E8A54B"/>
  <path d="M24 4c-4 0-8 4-8 8s4 8 8 8c2 0 4-1 5.5-2.5-1.5 1.5-3.5 2.5-5.5 2.5-4 0-8-4-8-8s4-8 8-8c2 0 4 1 5.5 2.5C28 5 26 4 24 4z" fill="#4A7C43"/>
  <path d="M24 4c4 0 8 4 8 8s-4 8-8 8c-2 0-4-1-5.5-2.5 1.5 1.5 3.5 2.5 5.5 2.5 4 0 8-4 8-8s-4-8-8-8c-2 0-4 1-5.5 2.5C20 5 22 4 24 4z" fill="#F2C078"/>
  <circle cx="24" cy="24" r="3" fill="#2D5A27"/>
  <line x1="24" y1="20" x2="24" y2="44" stroke="#2D5A27" stroke-width="2"/>
</svg>
